<?xml version="1.0" encoding="UTF-8"?>
<svg xmlns="http://www.w3.org/2000/svg" version="1.1" viewBox="0 0 48 48">
  <defs>
    <style>
      .cls-1 {
        fill: #fff;
      }
    </style>
  </defs>
  <!-- Generator: Adobe Illustrator 28.6.0, SVG Export Plug-In . SVG Version: 1.2.0 Build 709)  -->
  <g>
    <g id="Layer_1">
      <path class="cls-1" d="M47,12c0-1.1-.9-2-2-2h-21c-1.1,0-2,.9-2,2s.9,2,2,2h21c1.1,0,2-.9,2-2Z"/>
      <path class="cls-1" d="M3,14h5.4c1.1,3.1,4.5,4.8,7.7,3.7,3.1-1.1,4.8-4.5,3.7-7.7-1.1-3.1-4.5-4.8-7.7-3.7-1.7.6-3.1,1.9-3.7,3.7H3c-1.1,0-2,.9-2,2s.9,2,2,2ZM14,10c1.1,0,2,.9,2,2s-.9,2-2,2-2-.9-2-2,.9-2,2-2Z"/>
      <path class="cls-1" d="M45,22h-7.3c-1.1-3.1-4.5-4.8-7.7-3.7-3.1,1.1-4.8,4.5-3.7,7.7,1.1,3.1,4.5,4.8,7.7,3.7,1.7-.6,3.1-1.9,3.7-3.7h7.3c1.1,0,2-.9,2-2s-.9-2-2-2ZM32,26c-1.1,0-2-.9-2-2s.9-2,2-2,2,.9,2,2-.9,2-2,2Z"/>
      <path class="cls-1" d="M22,22H3c-1.1,0-2,.9-2,2s.9,2,2,2h19c1.1,0,2-.9,2-2s-.9-2-2-2Z"/>
      <path class="cls-1" d="M45,34h-17c-1.1,0-2,.9-2,2s.9,2,2,2h17c1.1,0,2-.9,2-2s-.9-2-2-2Z"/>
      <path class="cls-1" d="M18,30c-2.5,0-4.8,1.6-5.6,4H3c-1.1,0-2,.9-2,2s.9,2,2,2h9.4c1.1,3.1,4.5,4.8,7.7,3.7s4.8-4.5,3.7-7.7c-.8-2.4-3.1-4-5.7-4ZM18,38c-1.1,0-2-.9-2-2s.9-2,2-2,2,.9,2,2-.9,2-2,2Z"/>
    </g>
  </g>
</svg>