<?xml version="1.0" encoding="UTF-8"?>
<svg xmlns="http://www.w3.org/2000/svg" version="1.1" viewBox="0 0 24 24">
  <defs>
    <style>
      .cls-1 {
        fill: #fff;
      }
    </style>
  </defs>
  <!-- Generator: Adobe Illustrator 28.6.0, SVG Export Plug-In . SVG Version: 1.2.0 Build 709)  -->
  <g>
    <g id="Layer_1">
      <path class="cls-1" d="M9.4,9.2s-3.2.4-5.3.6c-.2,0-.4.1-.4.3s0,.4.1.5c1.6,1.4,3.9,3.6,3.9,3.6,0,0-.6,3.1-1.1,5.2,0,.2,0,.4.2.5.2.1.4.1.5,0,1.8-1,4.6-2.6,4.6-2.6,0,0,2.8,1.6,4.6,2.6.2,0,.4,0,.5,0,.2-.1.2-.3.2-.5-.4-2.1-1.1-5.2-1.1-5.2,0,0,2.4-2.1,3.9-3.6.1-.1.2-.3.1-.5s-.2-.3-.4-.3c-2.1-.2-5.3-.6-5.3-.6,0,0-1.3-2.9-2.2-4.8,0-.2-.3-.3-.5-.3s-.4.1-.5.3c-.9,1.9-2.2,4.8-2.2,4.8Z"/>
    </g>
  </g>
</svg>